<svg width="137" height="61" viewBox="0 0 137 61" fill="none" xmlns="http://www.w3.org/2000/svg">
<path d="M19.0154 10.08L18.4412 14.7675H6.72241L5.85522 21.7988H12.8865L13.0271 20.6269H7.16772L7.75366 15.9394H18.3005L16.9998 26.4863H0.593506L2.60913 10.08H19.0154ZM24.3005 14.7675L24.1599 15.9394H31.1912L31.3318 14.7675H24.3005ZM20.1873 10.08H36.5935L34.5779 26.4863H29.8904L30.6052 20.6269H23.574L22.8591 26.4863H18.1716L20.1873 10.08ZM52.156 26.4863H47.4685L48.9099 14.7675H47.738L46.2966 26.4863H41.6091L43.0505 14.7675H41.8787L40.4373 26.4863H35.7498L37.7654 10.08H54.1716L52.156 26.4863ZM55.3435 10.08H71.7498L69.7341 26.4863H53.3279L55.3435 10.08ZM59.4568 14.7675L58.5896 21.7988H65.6208L65.7615 20.6269H59.9021L60.488 15.9394H66.3474L66.488 14.7675H59.4568ZM75.5935 26.4863H70.906L72.9216 10.08H77.6091L75.5935 26.4863ZM88.7537 14.7675L87.3123 26.4863H82.6248L84.0662 14.7675H78.2068L78.781 10.08H95.1873L94.613 14.7675H88.7537ZM99.6052 21.7988L99.031 26.4863H94.3435L94.9177 21.7988H99.6052ZM101.047 10.08L99.7458 20.6269H95.0583L96.3591 10.08H101.047Z" fill="white"/>
<path d="M62.0622 32.6373C62.1976 32.5644 62.3643 32.4082 62.5622 32.1686C62.7601 31.9186 62.9528 31.679 63.1403 31.4498C63.3278 31.2102 63.4684 31.0748 63.5622 31.0436C63.6247 30.9394 63.682 30.8509 63.7341 30.778C63.7862 30.705 63.8643 30.6373 63.9684 30.5748C64.1351 30.2727 64.3539 30.0175 64.6247 29.8092C64.9059 29.5905 65.1664 29.3561 65.4059 29.1061C65.6039 29.0227 65.8018 28.929 65.9997 28.8248C66.208 28.7207 66.4112 28.6009 66.6091 28.4655C67.0153 28.1946 67.4684 28.054 67.9684 28.0436C68.1976 28.1477 68.4216 28.179 68.6403 28.1373C68.8487 28.0957 69.0518 28.1477 69.2497 28.2936C69.3643 28.4915 69.458 28.6113 69.5309 28.653C69.6039 28.6946 69.6664 28.7519 69.7184 28.8248C69.8018 29.0852 69.8643 29.2571 69.9059 29.3405C69.958 29.4238 69.9893 29.5123 69.9997 29.6061C70.0101 29.7623 70.0205 29.8977 70.0309 30.0123C70.0414 30.1165 70.0518 30.205 70.0622 30.278C70.0726 30.4134 70.0726 30.5436 70.0622 30.6686C69.9997 31.1998 69.8955 31.7311 69.7497 32.2623C69.7289 32.3248 69.708 32.3873 69.6872 32.4498C69.6664 32.5123 69.6455 32.58 69.6247 32.653C69.583 32.7884 69.5309 32.9082 69.4684 33.0123C69.3122 33.2102 69.2028 33.3717 69.1403 33.4967C69.0466 33.6634 68.9789 33.7727 68.9372 33.8248C68.8122 33.9498 68.6924 34.0644 68.5778 34.1686C68.4737 34.2727 68.3747 34.3665 68.2809 34.4498C68.1872 34.5019 68.0934 34.5592 67.9997 34.6217C67.9059 34.6738 67.8122 34.7311 67.7184 34.7936C67.5414 34.9082 67.333 34.9915 67.0934 35.0436L66.8122 35.2155C66.7184 35.278 66.6143 35.3144 66.4997 35.3248C66.3122 35.4602 66.1039 35.5696 65.8747 35.653C65.7705 35.6946 65.6612 35.7363 65.5466 35.778C65.4424 35.8196 65.333 35.8665 65.2184 35.9186C65.0622 35.9811 64.9268 36.054 64.8122 36.1373C64.6976 36.2207 64.5518 36.304 64.3747 36.3873C64.2809 36.4186 64.1299 36.455 63.9216 36.4967C63.7237 36.528 63.583 36.5644 63.4997 36.6061C63.6039 36.8144 63.6455 37.0748 63.6247 37.3873C63.6143 37.679 63.6664 37.9394 63.7809 38.1686C64.0518 38.2311 64.3487 38.278 64.6716 38.3092C64.9945 38.3405 65.3018 38.3352 65.5934 38.2936C65.6455 38.2832 65.6976 38.2675 65.7497 38.2467C65.8122 38.2259 65.8747 38.205 65.9372 38.1842C65.9997 38.1634 66.0622 38.1425 66.1247 38.1217C66.1872 38.1009 66.2497 38.0852 66.3122 38.0748C66.5414 38.0332 66.7653 37.9811 66.9841 37.9186C67.2028 37.8561 67.3955 37.7727 67.5622 37.6686C68.1664 37.4602 68.7497 37.179 69.3122 36.8248C69.8747 36.4707 70.3643 36.0852 70.7809 35.6686C71.0309 35.5019 71.307 35.2727 71.6091 34.9811C71.9112 34.6894 72.1455 34.4186 72.3122 34.1686C72.6247 33.8352 72.9007 33.5748 73.1403 33.3873C73.3799 33.1998 73.6039 33.1165 73.8122 33.1373C73.9789 33.1373 74.1403 33.2363 74.2966 33.4342C74.4528 33.6321 74.4372 33.8457 74.2497 34.0748C74.0518 34.1998 73.833 34.3873 73.5934 34.6373C73.3643 34.8873 73.1247 35.0644 72.8747 35.1686C72.6976 35.2832 72.4632 35.5123 72.1716 35.8561C71.8903 36.179 71.6559 36.429 71.4684 36.6061C71.4268 36.6477 71.3799 36.6946 71.3278 36.7467C71.2757 36.7988 71.2132 36.8509 71.1403 36.903C71.0049 37.0071 70.8955 37.1165 70.8122 37.2311C70.4893 37.5019 70.1768 37.7311 69.8747 37.9186C69.7601 37.8769 69.6664 37.8977 69.5934 37.9811C69.4997 38.0957 69.4164 38.179 69.3434 38.2311C69.3122 38.2519 69.2809 38.2727 69.2497 38.2936C69.2184 38.3144 69.182 38.3352 69.1403 38.3561C69.0987 38.3769 69.0622 38.3977 69.0309 38.4186C68.9997 38.4394 68.9684 38.4602 68.9372 38.4811C68.7705 38.6269 68.5882 38.7727 68.3903 38.9186C68.1924 39.0644 67.9893 39.1894 67.7809 39.2936C67.5726 39.4186 67.3643 39.5332 67.1559 39.6373C66.9476 39.7519 66.7393 39.8509 66.5309 39.9342C66.3226 40.0175 66.1143 40.1165 65.9059 40.2311C65.708 40.3457 65.5101 40.4707 65.3122 40.6061L64.9684 40.653C64.9164 40.6634 64.8643 40.6686 64.8122 40.6686C64.7601 40.679 64.708 40.6894 64.6559 40.6998C64.5414 40.7415 64.432 40.7623 64.3278 40.7623C64.2237 40.7623 64.0934 40.7415 63.9372 40.6998C63.2497 40.5123 62.6872 40.179 62.2497 39.6998C62.1872 39.6373 62.1195 39.58 62.0466 39.528C61.9841 39.4655 61.9164 39.4082 61.8434 39.3561C61.6768 39.2311 61.5622 39.1165 61.4997 39.0123C61.4059 38.8561 61.3122 38.6113 61.2184 38.278C61.1143 37.9446 61.0257 37.6061 60.9528 37.2623C60.8799 36.9082 60.8434 36.6373 60.8434 36.4498C60.9059 36.3248 60.9737 36.1113 61.0466 35.8092C61.1195 35.4967 61.182 35.1894 61.2341 34.8873C61.2862 34.5748 61.3122 34.3561 61.3122 34.2311C61.3539 34.1894 61.4372 34.054 61.5622 33.8248C61.6768 33.5852 61.7862 33.3457 61.8903 33.1061C62.0049 32.8561 62.0622 32.6998 62.0622 32.6373ZM67.0934 30.6373C66.9476 30.8248 66.8018 31.0019 66.6559 31.1686C66.5101 31.3352 66.3434 31.4915 66.1559 31.6373C66.0309 31.8665 65.8851 32.0748 65.7184 32.2623C65.5518 32.4498 65.3851 32.6269 65.2184 32.7936C65.1351 32.9602 65.0414 33.0905 64.9372 33.1842C64.833 33.278 64.7184 33.3769 64.5934 33.4811C64.458 33.7102 64.2914 33.929 64.0934 34.1373C63.8955 34.3457 63.8539 34.5852 63.9684 34.8561C64.1976 34.8977 64.4268 34.8665 64.6559 34.7623C64.8851 34.6582 65.083 34.5644 65.2497 34.4811C65.333 34.429 65.4164 34.3821 65.4997 34.3405C65.5934 34.2988 65.682 34.2571 65.7653 34.2155C65.8487 34.1738 65.932 34.1321 66.0153 34.0905C66.0987 34.0488 66.1768 34.0019 66.2497 33.9498L67.0622 33.1373C67.1872 33.0227 67.3122 32.8873 67.4372 32.7311C67.4893 32.6582 67.5414 32.5852 67.5934 32.5123C67.6559 32.429 67.7184 32.3457 67.7809 32.2623C67.833 32.0332 67.9164 31.8196 68.0309 31.6217C68.1559 31.4134 68.208 31.1998 68.1872 30.9811C68.1768 30.8873 68.1403 30.778 68.0778 30.653C68.0153 30.528 67.9789 30.429 67.9684 30.3561C67.7497 30.3561 67.5882 30.3925 67.4841 30.4655C67.432 30.5071 67.3695 30.5436 67.2966 30.5748C67.2341 30.5957 67.1664 30.6165 67.0934 30.6373ZM74.6559 35.6998C74.8226 35.5957 74.958 35.4602 75.0622 35.2936C75.1143 35.2102 75.1716 35.1269 75.2341 35.0436C75.2966 34.9602 75.3643 34.8769 75.4372 34.7936C75.708 34.4811 75.9997 34.2207 76.3122 34.0123C76.458 33.7936 76.6403 33.6321 76.8591 33.528C77.0778 33.4134 77.2497 33.2415 77.3747 33.0123C77.4059 32.9707 77.4424 32.9082 77.4841 32.8248C77.5257 32.7415 77.5622 32.679 77.5934 32.6373C77.9893 32.0852 78.4164 31.6269 78.8747 31.2623C78.9372 31.2102 78.9997 31.1582 79.0622 31.1061C79.1247 31.054 79.182 31.0019 79.2341 30.9498C79.3174 30.8665 79.458 30.7623 79.6559 30.6373C79.7497 30.5852 79.8434 30.528 79.9372 30.4655C80.0309 30.3925 80.1195 30.3144 80.2028 30.2311C80.3695 30.0644 80.5622 29.9394 80.7809 29.8561C80.9164 29.7936 81.0518 29.7467 81.1872 29.7155C81.2497 29.6946 81.3122 29.679 81.3747 29.6686C81.4476 29.6477 81.5205 29.6269 81.5934 29.6061C81.7393 29.5644 81.8695 29.528 81.9841 29.4967C82.0987 29.4655 82.2289 29.4707 82.3747 29.5123C82.708 29.6477 82.958 29.929 83.1247 30.3561C83.1872 30.5123 83.1507 30.8405 83.0153 31.3405C82.8903 31.8405 82.7393 32.3613 82.5622 32.903C82.3851 33.4342 82.2601 33.8457 82.1872 34.1373C82.1455 34.2936 82.1351 34.3821 82.1559 34.403C82.1768 34.4238 82.1872 34.4498 82.1872 34.4811C82.1455 34.5852 82.1143 34.679 82.0934 34.7623C82.0726 34.8457 82.0518 34.9394 82.0309 35.0436C81.9893 35.2102 81.958 35.4342 81.9372 35.7155C81.9164 35.9967 81.9268 36.2207 81.9684 36.3873C82.1768 36.3769 82.2966 36.3561 82.3278 36.3248C82.3487 36.304 82.3747 36.2936 82.4059 36.2936C82.4893 36.2727 82.557 36.2675 82.6091 36.278C82.6612 36.2884 82.7289 36.2832 82.8122 36.2623C83.2393 36.1477 83.6247 35.9186 83.9684 35.5748C84.1559 35.4915 84.333 35.4082 84.4997 35.3248C84.6768 35.2415 84.8434 35.1582 84.9997 35.0748C85.2914 34.8665 85.5257 34.7155 85.7028 34.6217C85.8799 34.528 86.1455 34.3977 86.4997 34.2311C86.6351 34.0748 86.8174 33.9446 87.0466 33.8405C87.2549 33.7467 87.458 33.6165 87.6559 33.4498C87.7184 33.3873 87.7705 33.33 87.8122 33.278C87.8747 33.1946 87.9372 33.179 87.9997 33.2311C88.1039 33.3352 88.1716 33.4446 88.2028 33.5592C88.2341 33.6738 88.2393 33.7519 88.2184 33.7936C88.0622 33.9498 87.9737 34.0748 87.9528 34.1686C87.932 34.2623 87.9059 34.3248 87.8747 34.3561C87.7705 34.4602 87.6143 34.554 87.4059 34.6373C87.2289 34.7102 87.1195 34.778 87.0778 34.8405C87.0362 34.903 86.9997 34.9498 86.9684 34.9811C86.9059 35.0436 86.8487 35.0905 86.7966 35.1217C86.7445 35.153 86.6872 35.1998 86.6247 35.2623C86.583 35.3248 86.5257 35.3613 86.4528 35.3717L86.2497 35.4186C86.1247 35.5227 86.0205 35.6165 85.9372 35.6998C85.8539 35.7832 85.7601 35.8769 85.6559 35.9811C85.4997 36.1373 85.3955 36.2571 85.3434 36.3405C85.3018 36.4134 85.1872 36.5123 84.9997 36.6373L84.3747 37.0123C84.083 37.1582 83.7914 37.3352 83.4997 37.5436C83.208 37.7519 82.9164 37.9602 82.6247 38.1686C82.4372 38.2832 82.2237 38.3925 81.9841 38.4967C81.7653 38.5905 81.5622 38.6998 81.3747 38.8248C81.2809 38.8248 81.2237 38.8196 81.2028 38.8092C81.1716 38.7884 81.1143 38.804 81.0309 38.8561C80.9268 38.804 80.8226 38.7988 80.7184 38.8405C80.6039 38.8925 80.4997 38.8977 80.4059 38.8561C80.3018 38.7727 80.2132 38.705 80.1403 38.653C80.0778 38.6009 80.0257 38.5644 79.9841 38.5436C79.9216 38.5019 79.8643 38.4498 79.8122 38.3873C79.7705 38.2832 79.7549 38.1686 79.7653 38.0436C79.7757 37.9186 79.7497 37.8144 79.6872 37.7311C79.6872 37.2727 79.7028 36.8352 79.7341 36.4186C79.7653 36.0019 79.833 35.5644 79.9372 35.1061C79.958 34.9602 80.0101 34.7102 80.0934 34.3561C80.1768 33.9915 80.2445 33.6425 80.2966 33.3092C80.3487 32.9759 80.333 32.7832 80.2497 32.7311C80.0205 32.8561 79.7862 33.0436 79.5466 33.2936C79.432 33.4186 79.3174 33.5332 79.2028 33.6373C79.0882 33.7415 78.9789 33.8352 78.8747 33.9186L78.3903 34.2623C78.3174 34.3144 78.2393 34.3717 78.1559 34.4342C78.0726 34.4863 77.9893 34.5436 77.9059 34.6061C77.7601 34.7102 77.6351 34.8144 77.5309 34.9186C77.4268 35.0227 77.3122 35.1477 77.1872 35.2936C77.1143 35.3665 77.0414 35.4394 76.9684 35.5123C76.9059 35.5748 76.8434 35.6425 76.7809 35.7155C76.6559 35.8509 76.5101 35.9811 76.3434 36.1061C76.2393 36.2102 76.1612 36.278 76.1091 36.3092C76.057 36.3405 75.9893 36.3977 75.9059 36.4811L75.6091 36.778C75.5153 36.8717 75.3955 36.9498 75.2497 37.0123C74.9164 37.4602 74.5414 37.8925 74.1247 38.3092C73.7184 38.7259 73.3955 39.1477 73.1559 39.5748C72.9059 39.7832 72.6403 39.9655 72.3591 40.1217C72.0778 40.278 71.7393 40.2936 71.3434 40.1686C71.1351 40.0436 70.9997 39.9394 70.9372 39.8561C70.8747 39.7832 70.8018 39.7207 70.7184 39.6686C70.7393 39.4394 70.7601 39.2207 70.7809 39.0123C70.8018 38.804 70.8643 38.5852 70.9684 38.3561L71.1559 38.0436C71.2601 37.8665 71.3278 37.6582 71.3591 37.4186C71.3903 37.1686 71.458 36.9498 71.5622 36.7623C71.6872 36.554 71.7653 36.3821 71.7966 36.2467C71.8278 36.1217 71.8747 36.0019 71.9372 35.8873C71.9893 35.7623 72.0466 35.6634 72.1091 35.5905C72.1716 35.5175 72.2289 35.4186 72.2809 35.2936C72.333 35.179 72.4059 35.0592 72.4997 34.9342C72.5934 34.8092 72.6664 34.6894 72.7184 34.5748C72.8434 34.1269 73.0101 33.6686 73.2184 33.1998C73.2601 33.054 73.3018 32.9134 73.3434 32.778C73.3851 32.6425 73.4372 32.5123 73.4997 32.3873C73.5518 32.2727 73.6039 32.1582 73.6559 32.0436C73.708 31.929 73.7601 31.8196 73.8122 31.7155C73.8643 31.6009 73.9164 31.4915 73.9684 31.3873C74.0205 31.2727 74.0726 31.1582 74.1247 31.0436C74.1872 30.9186 74.2445 30.8092 74.2966 30.7155C74.3487 30.6217 74.4164 30.5227 74.4997 30.4186C74.5309 30.3665 74.5622 30.3144 74.5934 30.2623C74.6247 30.2102 74.6507 30.1582 74.6716 30.1061C74.6924 30.054 74.7184 30.0019 74.7497 29.9498C74.7809 29.8977 74.8122 29.8457 74.8434 29.7936C74.8747 29.7415 74.9059 29.6894 74.9372 29.6373C74.9684 29.5748 74.9945 29.5071 75.0153 29.4342C75.057 29.2988 75.1351 29.1686 75.2497 29.0436C75.3226 28.9602 75.3851 28.8821 75.4372 28.8092C75.4997 28.7259 75.5518 28.6477 75.5934 28.5748C75.6664 28.4394 75.8018 28.3457 75.9997 28.2936C76.1768 28.3769 76.3591 28.3457 76.5466 28.1998C76.7445 28.0436 76.9059 28.054 77.0309 28.2311C77.3226 28.4186 77.5205 28.5644 77.6247 28.6686C77.7497 28.7832 77.833 28.8977 77.8747 29.0123C77.9789 29.1998 77.9893 29.3925 77.9059 29.5905C77.8226 29.7884 77.6768 29.9602 77.4684 30.1061C77.3955 30.429 77.2497 30.7623 77.0309 31.1061C76.9268 31.2623 76.8278 31.4186 76.7341 31.5748C76.6403 31.7207 76.5518 31.8665 76.4684 32.0123L76.2184 32.6373C76.0934 32.929 75.9632 33.2207 75.8278 33.5123C75.6924 33.804 75.5414 34.0852 75.3747 34.3561C75.2393 34.6373 75.1351 34.8196 75.0622 34.903C74.9997 34.9863 74.9424 35.0696 74.8903 35.153C74.8487 35.2259 74.7705 35.4082 74.6559 35.6998ZM94.9059 31.7311C94.9476 31.7623 95.0049 31.7259 95.0778 31.6217C95.1195 31.5696 95.1507 31.5227 95.1716 31.4811C95.2028 31.429 95.2289 31.3873 95.2497 31.3561C95.2914 31.2623 95.3278 31.1582 95.3591 31.0436C95.3903 30.929 95.4268 30.8248 95.4684 30.7311C95.5934 30.4915 95.7549 30.2519 95.9528 30.0123C96.1403 29.7832 96.2914 29.5436 96.4059 29.2936C96.4372 29.2623 96.4841 29.2259 96.5466 29.1842C96.5987 29.153 96.6455 29.1061 96.6872 29.0436C96.8539 29.0227 96.9684 29.0019 97.0309 28.9811C97.0934 28.9602 97.1559 28.929 97.2184 28.8873C97.4476 28.9498 97.5934 29.1269 97.6559 29.4186C97.6455 29.5748 97.5778 29.705 97.4528 29.8092C97.3487 29.903 97.2705 30.0227 97.2184 30.1686C97.1664 30.2519 97.1507 30.3352 97.1716 30.4186C97.1924 30.5019 97.1768 30.5852 97.1247 30.6686C97.0205 31.0123 96.8799 31.3457 96.7028 31.6686C96.5153 32.0123 96.3643 32.3457 96.2497 32.6686C96.1455 32.8769 96.0466 33.0852 95.9528 33.2936C95.8591 33.5019 95.7809 33.7207 95.7184 33.9498C95.4893 34.3665 95.2705 34.804 95.0622 35.2623C94.8643 35.7102 94.6455 36.179 94.4059 36.6686C94.6039 36.6165 94.7705 36.5384 94.9059 36.4342C95.0518 36.3196 95.208 36.2102 95.3747 36.1061L95.6559 35.9967C95.6976 35.9759 95.7393 35.9602 95.7809 35.9498C95.833 35.929 95.8851 35.9082 95.9372 35.8873L96.3278 35.6373C96.3695 35.6165 96.4059 35.5957 96.4372 35.5748C96.4789 35.554 96.5205 35.5332 96.5622 35.5123L96.7497 35.3717C96.7914 35.3405 96.8643 35.2936 96.9684 35.2311C97.0205 35.179 97.0778 35.1477 97.1403 35.1373C97.2028 35.1269 97.2601 35.0957 97.3122 35.0436C97.4372 34.9915 97.5309 34.9394 97.5934 34.8873C97.6768 34.8248 97.7705 34.7623 97.8747 34.6998C97.9997 34.6373 98.1091 34.5748 98.2028 34.5123C98.2757 34.4602 98.3955 34.4082 98.5622 34.3561C98.6872 34.304 98.8122 34.2415 98.9372 34.1686C98.9997 34.1477 99.0622 34.1165 99.1247 34.0748C99.1872 34.0227 99.2393 33.9915 99.2809 33.9811C99.4164 33.929 99.4893 33.8977 99.4997 33.8873C99.5309 33.8561 99.5622 33.8352 99.5934 33.8248C99.7809 33.7623 99.9007 33.7207 99.9528 33.6998C99.9737 33.6894 100.01 33.6582 100.062 33.6061C100.302 33.4394 100.489 33.3405 100.625 33.3092C100.771 33.2675 100.968 33.1686 101.218 33.0123C101.375 33.0332 101.489 33.0384 101.562 33.028C101.666 33.0175 101.76 33.054 101.843 33.1373C101.76 33.5332 101.609 33.7988 101.39 33.9342C101.172 34.0696 100.937 34.1894 100.687 34.2936C100.333 34.6061 100.031 34.8509 99.7809 35.028C99.5309 35.205 99.208 35.4186 98.8122 35.6686C98.5414 35.7832 98.3226 35.8977 98.1559 36.0123C97.9684 36.0123 97.8278 36.0436 97.7341 36.1061C97.6091 36.1894 97.5101 36.2519 97.4372 36.2936C97.3643 36.3352 97.2757 36.3665 97.1716 36.3873C97.0674 36.4082 96.9789 36.4394 96.9059 36.4811C96.6976 36.6061 96.5674 36.679 96.5153 36.6998C96.4737 36.7102 96.4268 36.7415 96.3747 36.7936C96.1664 37.0748 95.9684 37.2519 95.7809 37.3248C95.583 37.4082 95.4164 37.5332 95.2809 37.6998C94.9268 37.804 94.6351 37.9707 94.4059 38.1998C94.1664 38.4394 93.8955 38.6269 93.5934 38.7623C93.4164 39.2623 93.2757 39.7415 93.1716 40.1998C93.0674 40.679 92.9268 41.1477 92.7497 41.6061L92.2341 43.0436C92.1507 43.2832 92.0674 43.5227 91.9841 43.7623C91.9112 44.0123 91.8434 44.2623 91.7809 44.5123C91.5518 44.8873 91.3643 45.3144 91.2184 45.7936C91.1455 46.0227 91.0622 46.2519 90.9684 46.4811C90.8851 46.7102 90.7914 46.9394 90.6872 47.1686C90.5309 47.2832 90.4112 47.4602 90.3278 47.6998C90.2445 47.9394 90.1143 48.1269 89.9372 48.2623C89.833 48.4915 89.6872 48.6842 89.4997 48.8405C89.3122 48.9967 89.1351 49.1582 88.9684 49.3248C88.8747 49.4186 88.7914 49.5227 88.7184 49.6373C88.4789 49.8769 88.208 50.1321 87.9059 50.403C87.6143 50.6634 87.3539 50.9394 87.1247 51.2311C86.8955 51.3769 86.6872 51.5332 86.4997 51.6998C86.3122 51.8665 86.1247 52.0436 85.9372 52.2311L85.6716 52.3405C85.5987 52.3717 85.5205 52.3561 85.4372 52.2936C85.2289 52.3561 85.0101 52.3665 84.7809 52.3248C84.5518 52.2832 84.458 52.1477 84.4997 51.9186C84.3643 51.804 84.2914 51.7155 84.2809 51.653C84.2705 51.5696 84.2393 51.4915 84.1872 51.4186C84.2601 51.2519 84.2601 51.1009 84.1872 50.9655C84.1039 50.8196 84.0622 50.6998 84.0622 50.6061C84.0622 50.3352 84.0934 50.0748 84.1559 49.8248C84.208 49.5436 84.2757 49.3092 84.3591 49.1217L84.6559 48.4811C84.7809 48.1894 84.8903 47.9134 84.9841 47.653C85.0778 47.3925 85.1768 47.1165 85.2809 46.8248C85.4372 46.5644 85.5362 46.3196 85.5778 46.0905C85.6195 45.83 85.6976 45.5748 85.8122 45.3248C85.8539 45.2415 85.8955 45.1582 85.9372 45.0748C85.9893 44.9915 86.0362 44.9134 86.0778 44.8405C86.182 44.6738 86.2393 44.5123 86.2497 44.3561C86.333 44.1998 86.4164 44.0488 86.4997 43.903C86.5934 43.7675 86.6924 43.6373 86.7966 43.5123C87.0049 43.2623 87.1768 42.9811 87.3122 42.6686C87.8539 41.8977 88.4789 41.2259 89.1872 40.653C89.8955 40.08 90.6143 39.5227 91.3434 38.9811C91.4789 38.8144 91.557 38.7259 91.5778 38.7155C91.5987 38.705 91.6195 38.6946 91.6403 38.6842C91.6716 38.6738 91.7601 38.5957 91.9059 38.4498C91.9372 38.4394 91.9632 38.3977 91.9841 38.3248C92.0049 38.2519 92.0414 38.1894 92.0934 38.1373C92.1768 37.9082 92.2653 37.6686 92.3591 37.4186C92.4632 37.1582 92.5726 36.8821 92.6872 36.5905C92.8018 36.2988 92.9007 36.0384 92.9841 35.8092C93.0674 35.5696 93.1351 35.3561 93.1872 35.1686C93.0726 35.2207 92.9945 35.2936 92.9528 35.3873C92.9112 35.4811 92.8539 35.5644 92.7809 35.6373C92.7393 35.6998 92.6872 35.7519 92.6247 35.7936C92.5414 35.8561 92.4893 35.8977 92.4684 35.9186C92.4059 35.9811 92.3539 36.028 92.3122 36.0592C92.2705 36.0905 92.2184 36.1477 92.1559 36.2311C91.958 36.3977 91.7549 36.5957 91.5466 36.8248C91.3487 37.0436 91.1455 37.2415 90.9372 37.4186C90.7705 37.6477 90.5987 37.8613 90.4216 38.0592C90.2445 38.2571 90.0414 38.4186 89.8122 38.5436C89.4997 38.7727 89.1768 38.9602 88.8434 39.1061C88.5101 39.2519 88.1976 39.3769 87.9059 39.4811L87.4841 39.6217C87.3278 39.6738 87.208 39.6998 87.1247 39.6998C87.0622 39.7207 87.0101 39.7259 86.9684 39.7155C86.9268 39.705 86.8643 39.6998 86.7809 39.6998C86.4684 39.6998 86.1872 39.6582 85.9372 39.5748C85.8747 39.5332 85.8226 39.4967 85.7809 39.4655C85.7393 39.4342 85.6976 39.3769 85.6559 39.2936C85.6143 39.2519 85.5622 39.1946 85.4997 39.1217C85.4372 39.0488 85.3851 38.9811 85.3434 38.9186C85.3018 38.8248 85.2809 38.7155 85.2809 38.5905C85.2809 38.4655 85.2601 38.3561 85.2184 38.2623C85.1976 38.1582 85.1768 38.0592 85.1559 37.9655C85.1247 37.8613 85.0934 37.7675 85.0622 37.6842C84.9997 37.4967 84.9893 37.3144 85.0309 37.1373C85.0414 37.1061 85.0518 37.0748 85.0622 37.0436C85.0726 37.0123 85.083 36.9863 85.0934 36.9655C85.1143 36.9134 85.1143 36.8561 85.0934 36.7936C85.083 36.7519 85.057 36.6894 85.0153 36.6061C84.9737 36.5227 84.9476 36.4602 84.9372 36.4186C84.833 36.2519 84.7809 36.1165 84.7809 36.0123C84.7705 35.8977 84.7862 35.7884 84.8278 35.6842C84.8799 35.5592 84.8851 35.4602 84.8434 35.3873C84.9164 35.2311 84.9737 35.0852 85.0153 34.9498C85.0674 34.804 85.1455 34.6686 85.2497 34.5436C85.4059 34.3144 85.5049 34.1425 85.5466 34.028C85.5674 33.955 85.5987 33.8925 85.6403 33.8405C85.6716 33.778 85.708 33.7207 85.7497 33.6686C85.8747 33.4602 85.9841 33.2936 86.0778 33.1686C86.1924 33.0227 86.3018 32.8665 86.4059 32.6998C86.8018 32.0123 87.2393 31.3873 87.7184 30.8248C87.7914 30.7832 87.8643 30.7519 87.9372 30.7311C87.9997 30.7102 88.0414 30.6582 88.0622 30.5748C88.5414 30.3457 88.9997 30.0957 89.4372 29.8248C89.6768 29.7623 89.8799 29.653 90.0466 29.4967C90.2237 29.33 90.4268 29.2102 90.6559 29.1373C90.833 29.0644 91.0309 28.9602 91.2497 28.8248C91.458 28.6894 91.6768 28.6165 91.9059 28.6061C92.1143 28.6061 92.2705 28.5748 92.3747 28.5123C92.4789 28.4498 92.583 28.3873 92.6872 28.3248C92.9789 28.1582 93.3122 28.0852 93.6872 28.1061C93.8643 28.2727 94.0362 28.3977 94.2028 28.4811C94.3695 28.554 94.5101 28.6894 94.6247 28.8873C94.6559 28.9394 94.682 29.0436 94.7028 29.1998L94.7497 29.6061C94.7914 29.7102 94.8278 29.8196 94.8591 29.9342C94.8903 30.0488 94.9164 30.1582 94.9372 30.2623C94.958 30.5436 94.9528 30.7936 94.9216 31.0123C94.8903 31.2311 94.8851 31.4707 94.9059 31.7311ZM93.2809 30.4186H93.2497C93.1768 30.4811 93.0882 30.5123 92.9841 30.5123C92.8799 30.5123 92.7914 30.5332 92.7184 30.5748C92.6872 30.6061 92.6403 30.6425 92.5778 30.6842C92.5153 30.7259 92.4684 30.7623 92.4372 30.7936C92.3434 30.8457 92.2445 30.8925 92.1403 30.9342C92.0466 30.9759 91.9424 31.0175 91.8278 31.0592C91.5882 31.1425 91.3955 31.2311 91.2497 31.3248C91.1559 31.3873 91.0726 31.4759 90.9997 31.5905C90.9372 31.6842 90.8539 31.7623 90.7497 31.8248C90.6872 31.8665 90.6247 31.9082 90.5622 31.9498C90.4997 31.9811 90.432 32.0123 90.3591 32.0436C90.2237 32.1061 90.1039 32.1894 89.9997 32.2936C89.9372 32.3561 89.8903 32.4186 89.8591 32.4811C89.8278 32.5436 89.7601 32.5748 89.6559 32.5748C89.4268 33.0019 89.1455 33.3977 88.8122 33.7623C88.4684 34.1477 88.1976 34.554 87.9997 34.9811C87.8955 35.0227 87.8278 35.0957 87.7966 35.1998C87.7757 35.2832 87.7289 35.3873 87.6559 35.5123C87.4268 35.9186 87.3382 36.2363 87.3903 36.4655C87.4112 36.5696 87.432 36.679 87.4528 36.7936C87.4737 36.8977 87.4893 37.0019 87.4997 37.1061C87.6247 37.2727 87.7966 37.3196 88.0153 37.2467C88.2341 37.1738 88.4268 37.0852 88.5934 36.9811C88.8018 36.8352 89.0049 36.6738 89.2028 36.4967C89.4007 36.3196 89.6039 36.1373 89.8122 35.9498C90.0205 35.7832 90.2132 35.6009 90.3903 35.403C90.5674 35.205 90.7393 35.0123 90.9059 34.8248C90.958 34.7519 91.0414 34.6686 91.1559 34.5748C91.2705 34.4811 91.3539 34.3977 91.4059 34.3248C91.5414 34.1894 91.6351 34.0905 91.6872 34.028C91.7705 33.9342 91.8643 33.8561 91.9684 33.7936C92.0518 33.679 92.1299 33.5696 92.2028 33.4655C92.2757 33.3509 92.3487 33.2415 92.4216 33.1373C92.4945 33.0332 92.5674 32.9342 92.6403 32.8405C92.7132 32.7363 92.7914 32.6373 92.8747 32.5436C92.9893 32.2727 93.0987 32.0227 93.2028 31.7936C93.2549 31.679 93.307 31.5644 93.3591 31.4498C93.4112 31.3248 93.458 31.1998 93.4997 31.0748C93.458 30.9811 93.4372 30.8613 93.4372 30.7155C93.4372 30.58 93.3851 30.4811 93.2809 30.4186ZM90.7184 41.7311C90.6664 41.7415 90.6091 41.778 90.5466 41.8405C90.5153 41.8717 90.4476 41.929 90.3434 42.0123C90.1351 42.2207 89.932 42.4342 89.7341 42.653C89.5362 42.8717 89.3539 43.1165 89.1872 43.3873C88.9997 43.6477 88.7862 43.9082 88.5466 44.1686C88.2966 44.429 88.1351 44.7102 88.0622 45.0123C87.833 45.3665 87.6299 45.7311 87.4528 46.1061C87.2757 46.4811 87.1351 46.8977 87.0309 47.3561C87.0101 47.4811 86.9893 47.5905 86.9684 47.6842C86.9476 47.7884 86.9268 47.8769 86.9059 47.9498C86.8643 48.0852 86.833 48.2311 86.8122 48.3873C86.9372 48.2623 87.0674 48.1321 87.2028 47.9967C87.3382 47.8613 87.458 47.7311 87.5622 47.6061C87.6039 47.5644 87.6403 47.5123 87.6716 47.4498C87.7028 47.3873 87.7393 47.3352 87.7809 47.2936C87.9059 47.1165 88.0309 46.9394 88.1559 46.7623C88.2914 46.5957 88.4268 46.429 88.5622 46.2623C88.833 45.929 89.083 45.5852 89.3122 45.2311C89.4164 45.1061 89.5101 44.9863 89.5934 44.8717C89.6768 44.7571 89.7601 44.6373 89.8434 44.5123C90.2289 43.9915 90.5205 43.4342 90.7184 42.8405C90.9268 42.2467 91.1455 41.6373 91.3747 41.0123C91.3122 41.0748 91.2497 41.1321 91.1872 41.1842C91.1247 41.2363 91.0674 41.2884 91.0153 41.3405C90.8799 41.455 90.7809 41.5852 90.7184 41.7311ZM106.062 23.8873L106.375 23.9811C106.416 24.0332 106.437 24.0957 106.437 24.1686C106.437 24.2207 106.468 24.2727 106.531 24.3248C106.489 24.5123 106.453 24.705 106.422 24.903C106.39 25.1009 106.375 25.2936 106.375 25.4811C106.375 25.554 106.401 25.6269 106.453 25.6998C106.505 25.7727 106.531 25.8352 106.531 25.8873C106.427 26.1269 106.349 26.2727 106.297 26.3248C106.244 26.3769 106.218 26.429 106.218 26.4811C106.114 26.5227 106.036 26.5852 105.984 26.6686C105.932 26.7519 105.843 26.7936 105.718 26.7936C105.677 26.8561 105.63 26.903 105.578 26.9342C105.515 26.9759 105.479 27.0332 105.468 27.1061C105.125 27.2519 104.75 27.2415 104.343 27.0748C104.229 26.8769 104.083 26.7415 103.906 26.6686C103.635 26.2727 103.625 25.804 103.875 25.2623C103.916 25.1582 103.963 25.0488 104.015 24.9342C104.067 24.8196 104.114 24.7415 104.156 24.6998C104.375 24.5436 104.541 24.4394 104.656 24.3873C104.698 24.3665 104.739 24.3457 104.781 24.3248C104.833 24.2936 104.88 24.2623 104.922 24.2311C104.994 24.179 105.104 24.1269 105.25 24.0748C105.312 24.054 105.369 24.0436 105.422 24.0436C105.505 24.0436 105.583 24.0227 105.656 23.9811C105.698 23.9707 105.734 23.9602 105.765 23.9498C105.807 23.9394 105.843 23.929 105.875 23.9186C105.958 23.8977 106.021 23.8873 106.062 23.8873ZM101.375 37.7311L101.531 37.7936C101.718 37.7102 101.948 37.679 102.218 37.6998C102.5 37.7207 102.718 37.679 102.875 37.5748C102.979 37.4915 103.052 37.429 103.093 37.3873C103.156 37.3248 103.229 37.304 103.312 37.3248C103.646 37.1998 103.927 37.0748 104.156 36.9498C104.396 36.8248 104.646 36.7311 104.906 36.6686C105.073 36.6061 105.218 36.5123 105.343 36.3873C105.771 36.2519 106.13 36.0592 106.422 35.8092C106.724 35.5592 107.052 35.2936 107.406 35.0123C107.698 34.8457 107.942 34.6998 108.14 34.5748C108.338 34.4498 108.552 34.2936 108.781 34.1061C108.833 33.9915 108.89 33.9134 108.953 33.8717C109.005 33.8405 109.062 33.7727 109.125 33.6686C109.5 33.6686 109.708 33.8144 109.75 34.1061C109.646 34.3352 109.505 34.5227 109.328 34.6686C109.14 34.8248 108.979 34.9915 108.843 35.1686C108.677 35.2727 108.541 35.3665 108.437 35.4498C108.333 35.5332 108.229 35.6582 108.125 35.8248C108.114 35.8248 108.052 35.8717 107.937 35.9655C107.833 36.0592 107.771 36.1061 107.75 36.1061C107.583 36.304 107.458 36.4238 107.375 36.4655C107.291 36.5071 107.146 36.6165 106.937 36.7936C106.802 37.0227 106.614 37.2102 106.375 37.3561C105.927 37.7832 105.453 38.1425 104.953 38.4342C104.692 38.58 104.448 38.7311 104.218 38.8873C103.989 39.0332 103.771 39.179 103.562 39.3248C103.458 39.3873 103.385 39.4446 103.343 39.4967C103.302 39.5488 103.229 39.6165 103.125 39.6998C103.021 39.7832 102.859 39.8665 102.64 39.9498C102.422 40.0332 102.229 40.1061 102.062 40.1686C101.927 40.2519 101.812 40.3144 101.718 40.3561C101.25 40.3769 100.896 40.304 100.656 40.1373C100.385 39.9915 100.177 39.8769 100.031 39.7936C99.8851 39.7102 99.7601 39.5748 99.6559 39.3873C99.4164 39.2727 99.2757 39.08 99.2341 38.8092C99.2132 38.6634 99.1872 38.5227 99.1559 38.3873C99.1247 38.2519 99.0934 38.1165 99.0622 37.9811C99.0414 37.8769 99.0205 37.7571 98.9997 37.6217C98.9789 37.4863 98.9789 37.3457 98.9997 37.1998C99.0518 36.9602 99.083 36.7155 99.0934 36.4655C99.1039 36.2363 99.1559 36.0123 99.2497 35.7936C99.3434 35.5852 99.4007 35.3561 99.4216 35.1061C99.4424 34.8561 99.4997 34.6269 99.5934 34.4186C99.7289 34.2102 99.7862 34.0957 99.7653 34.0748C99.7549 34.0644 99.7601 34.0332 99.7809 33.9811L99.9216 33.7936C99.9528 33.7519 99.9997 33.679 100.062 33.5748L100.25 33.1061C100.343 32.929 100.437 32.7832 100.531 32.6686C100.625 32.5436 100.708 32.3665 100.781 32.1373C100.833 31.9915 100.89 31.8769 100.953 31.7936C100.994 31.7415 101.031 31.6894 101.062 31.6373C101.104 31.5748 101.146 31.5123 101.187 31.4498C101.239 31.3457 101.291 31.2155 101.343 31.0592C101.364 30.9863 101.385 30.9186 101.406 30.8561C101.437 30.7832 101.468 30.7102 101.5 30.6373C101.562 30.4707 101.64 30.304 101.734 30.1373C101.828 29.9707 101.927 29.804 102.031 29.6373C102.114 29.4707 102.187 29.3457 102.25 29.2623C102.312 29.179 102.437 29.1269 102.625 29.1061C102.718 29.0852 102.812 29.0905 102.906 29.1217C103.021 29.153 103.125 29.1477 103.218 29.1061C103.489 28.9811 103.677 28.9186 103.781 28.9186C103.885 28.9186 103.958 28.8873 104 28.8248C104.218 28.8352 104.385 28.9082 104.5 29.0436C104.614 29.1686 104.739 29.2936 104.875 29.4186C104.75 30.0227 104.609 30.4863 104.453 30.8092C104.297 31.1321 104.125 31.4707 103.937 31.8248C103.833 31.9915 103.729 32.179 103.625 32.3873C103.521 32.5957 103.427 32.7832 103.343 32.9498C103.239 33.179 103.13 33.3821 103.015 33.5592C102.88 33.7675 102.781 33.9707 102.718 34.1686L102.578 34.4655C102.515 34.5905 102.468 34.6894 102.437 34.7623C102.416 34.8352 102.39 34.9082 102.359 34.9811C102.338 35.0436 102.307 35.1009 102.265 35.153C102.224 35.205 102.187 35.2623 102.156 35.3248C102.125 35.3769 102.093 35.429 102.062 35.4811C102 35.6061 101.937 35.7311 101.875 35.8561C101.812 35.9811 101.76 36.1165 101.718 36.2623C101.614 36.4915 101.552 36.6425 101.531 36.7155C101.521 36.7363 101.51 36.7623 101.5 36.7936C101.489 36.8144 101.479 36.8352 101.468 36.8561C101.427 37.0852 101.364 37.2727 101.281 37.4186C101.198 37.5644 101.229 37.6686 101.375 37.7311ZM110 35.6998C110.166 35.5957 110.302 35.4602 110.406 35.2936C110.458 35.2102 110.515 35.1269 110.578 35.0436C110.64 34.9602 110.708 34.8769 110.781 34.7936C111.052 34.4811 111.343 34.2207 111.656 34.0123C111.802 33.7936 111.984 33.6321 112.203 33.528C112.422 33.4134 112.593 33.2415 112.718 33.0123C112.75 32.9707 112.786 32.9082 112.828 32.8248C112.869 32.7415 112.906 32.679 112.937 32.6373C113.333 32.0852 113.76 31.6269 114.218 31.2623C114.281 31.2102 114.343 31.1582 114.406 31.1061C114.468 31.054 114.526 31.0019 114.578 30.9498C114.661 30.8665 114.802 30.7623 115 30.6373C115.093 30.5852 115.187 30.528 115.281 30.4655C115.375 30.3925 115.463 30.3144 115.547 30.2311C115.713 30.0644 115.906 29.9394 116.125 29.8561C116.26 29.7936 116.396 29.7467 116.531 29.7155C116.593 29.6946 116.656 29.679 116.718 29.6686C116.791 29.6477 116.864 29.6269 116.937 29.6061C117.083 29.5644 117.213 29.528 117.328 29.4967C117.442 29.4655 117.573 29.4707 117.718 29.5123C118.052 29.6477 118.302 29.929 118.468 30.3561C118.531 30.5123 118.494 30.8405 118.359 31.3405C118.234 31.8405 118.083 32.3613 117.906 32.903C117.729 33.4342 117.604 33.8457 117.531 34.1373C117.489 34.2936 117.479 34.3821 117.5 34.403C117.521 34.4238 117.531 34.4498 117.531 34.4811C117.489 34.5852 117.458 34.679 117.437 34.7623C117.416 34.8457 117.396 34.9394 117.375 35.0436C117.333 35.2102 117.302 35.4342 117.281 35.7155C117.26 35.9967 117.271 36.2207 117.312 36.3873C117.521 36.3769 117.64 36.3561 117.672 36.3248C117.692 36.304 117.718 36.2936 117.75 36.2936C117.833 36.2727 117.901 36.2675 117.953 36.278C118.005 36.2884 118.073 36.2832 118.156 36.2623C118.583 36.1477 118.968 35.9186 119.312 35.5748C119.5 35.4915 119.677 35.4082 119.843 35.3248C120.021 35.2415 120.187 35.1582 120.343 35.0748C120.635 34.8665 120.869 34.7155 121.047 34.6217C121.224 34.528 121.489 34.3977 121.843 34.2311C121.979 34.0748 122.161 33.9446 122.39 33.8405C122.599 33.7467 122.802 33.6165 123 33.4498C123.062 33.3873 123.114 33.33 123.156 33.278C123.218 33.1946 123.281 33.179 123.343 33.2311C123.448 33.3352 123.515 33.4446 123.547 33.5592C123.578 33.6738 123.583 33.7519 123.562 33.7936C123.406 33.9498 123.317 34.0748 123.297 34.1686C123.276 34.2623 123.25 34.3248 123.218 34.3561C123.114 34.4602 122.958 34.554 122.75 34.6373C122.573 34.7102 122.463 34.778 122.422 34.8405C122.38 34.903 122.343 34.9498 122.312 34.9811C122.25 35.0436 122.192 35.0905 122.14 35.1217C122.088 35.153 122.031 35.1998 121.968 35.2623C121.927 35.3248 121.869 35.3613 121.797 35.3717L121.593 35.4186C121.468 35.5227 121.364 35.6165 121.281 35.6998C121.198 35.7832 121.104 35.8769 121 35.9811C120.843 36.1373 120.739 36.2571 120.687 36.3405C120.646 36.4134 120.531 36.5123 120.343 36.6373L119.718 37.0123C119.427 37.1582 119.135 37.3352 118.843 37.5436C118.552 37.7519 118.26 37.9602 117.968 38.1686C117.781 38.2832 117.567 38.3925 117.328 38.4967C117.109 38.5905 116.906 38.6998 116.718 38.8248C116.625 38.8248 116.567 38.8196 116.547 38.8092C116.515 38.7884 116.458 38.804 116.375 38.8561C116.271 38.804 116.166 38.7988 116.062 38.8405C115.948 38.8925 115.843 38.8977 115.75 38.8561C115.646 38.7727 115.557 38.705 115.484 38.653C115.422 38.6009 115.369 38.5644 115.328 38.5436C115.265 38.5019 115.208 38.4498 115.156 38.3873C115.114 38.2832 115.099 38.1686 115.109 38.0436C115.119 37.9186 115.093 37.8144 115.031 37.7311C115.031 37.2727 115.047 36.8352 115.078 36.4186C115.109 36.0019 115.177 35.5644 115.281 35.1061C115.302 34.9602 115.354 34.7102 115.437 34.3561C115.521 33.9915 115.588 33.6425 115.64 33.3092C115.692 32.9759 115.677 32.7832 115.593 32.7311C115.364 32.8561 115.13 33.0436 114.89 33.2936C114.776 33.4186 114.661 33.5332 114.547 33.6373C114.432 33.7415 114.323 33.8352 114.218 33.9186L113.734 34.2623C113.661 34.3144 113.583 34.3717 113.5 34.4342C113.416 34.4863 113.333 34.5436 113.25 34.6061C113.104 34.7102 112.979 34.8144 112.875 34.9186C112.771 35.0227 112.656 35.1477 112.531 35.2936C112.458 35.3665 112.385 35.4394 112.312 35.5123C112.25 35.5748 112.187 35.6425 112.125 35.7155C112 35.8509 111.854 35.9811 111.687 36.1061C111.583 36.2102 111.505 36.278 111.453 36.3092C111.401 36.3405 111.333 36.3977 111.25 36.4811L110.953 36.778C110.859 36.8717 110.739 36.9498 110.593 37.0123C110.26 37.4602 109.885 37.8925 109.468 38.3092C109.062 38.7259 108.739 39.1477 108.5 39.5748C108.25 39.7832 107.984 39.9655 107.703 40.1217C107.422 40.278 107.083 40.2936 106.687 40.1686C106.479 40.0436 106.343 39.9394 106.281 39.8561C106.218 39.7832 106.146 39.7207 106.062 39.6686C106.083 39.4394 106.104 39.2207 106.125 39.0123C106.146 38.804 106.208 38.5852 106.312 38.3561L106.5 38.0436C106.604 37.8665 106.672 37.6582 106.703 37.4186C106.734 37.1686 106.802 36.9498 106.906 36.7623C107.031 36.554 107.109 36.3821 107.14 36.2467C107.172 36.1217 107.218 36.0019 107.281 35.8873C107.333 35.7623 107.39 35.6634 107.453 35.5905C107.515 35.5175 107.573 35.4186 107.625 35.2936C107.677 35.179 107.75 35.0592 107.843 34.9342C107.937 34.8092 108.01 34.6894 108.062 34.5748C108.187 34.1269 108.354 33.6686 108.562 33.1998C108.604 33.054 108.646 32.9134 108.687 32.778C108.729 32.6425 108.781 32.5123 108.843 32.3873C108.896 32.2727 108.948 32.1582 109 32.0436C109.052 31.929 109.104 31.8196 109.156 31.7155C109.208 31.6009 109.26 31.4915 109.312 31.3873C109.364 31.2727 109.416 31.1582 109.468 31.0436C109.531 30.9186 109.588 30.8092 109.64 30.7155C109.692 30.6217 109.76 30.5227 109.843 30.4186C109.875 30.3665 109.906 30.3144 109.937 30.2623C109.968 30.2102 109.994 30.1582 110.015 30.1061C110.036 30.054 110.062 30.0019 110.093 29.9498C110.125 29.8977 110.156 29.8457 110.187 29.7936C110.218 29.7415 110.25 29.6894 110.281 29.6373C110.312 29.5748 110.338 29.5071 110.359 29.4342C110.401 29.2988 110.479 29.1686 110.593 29.0436C110.666 28.9602 110.729 28.8821 110.781 28.8092C110.843 28.7259 110.896 28.6477 110.937 28.5748C111.01 28.4394 111.146 28.3457 111.343 28.2936C111.521 28.3769 111.703 28.3457 111.89 28.1998C112.088 28.0436 112.25 28.054 112.375 28.2311C112.666 28.4186 112.864 28.5644 112.968 28.6686C113.093 28.7832 113.177 28.8977 113.218 29.0123C113.323 29.1998 113.333 29.3925 113.25 29.5905C113.166 29.7884 113.021 29.9602 112.812 30.1061C112.739 30.429 112.593 30.7623 112.375 31.1061C112.271 31.2623 112.172 31.4186 112.078 31.5748C111.984 31.7207 111.896 31.8665 111.812 32.0123L111.562 32.6373C111.437 32.929 111.307 33.2207 111.172 33.5123C111.036 33.804 110.885 34.0852 110.718 34.3561C110.583 34.6373 110.479 34.8196 110.406 34.903C110.343 34.9863 110.286 35.0696 110.234 35.153C110.192 35.2259 110.114 35.4082 110 35.6998ZM121.406 32.6373C121.541 32.5644 121.708 32.4082 121.906 32.1686C122.104 31.9186 122.297 31.679 122.484 31.4498C122.672 31.2102 122.812 31.0748 122.906 31.0436C122.968 30.9394 123.026 30.8509 123.078 30.778C123.13 30.705 123.208 30.6373 123.312 30.5748C123.479 30.2727 123.698 30.0175 123.968 29.8092C124.25 29.5905 124.51 29.3561 124.75 29.1061C124.948 29.0227 125.146 28.929 125.343 28.8248C125.552 28.7207 125.755 28.6009 125.953 28.4655C126.359 28.1946 126.812 28.054 127.312 28.0436C127.541 28.1477 127.765 28.179 127.984 28.1373C128.192 28.0957 128.396 28.1477 128.593 28.2936C128.708 28.4915 128.802 28.6113 128.875 28.653C128.948 28.6946 129.01 28.7519 129.062 28.8248C129.146 29.0852 129.208 29.2571 129.25 29.3405C129.302 29.4238 129.333 29.5123 129.343 29.6061C129.354 29.7623 129.364 29.8977 129.375 30.0123C129.385 30.1165 129.396 30.205 129.406 30.278C129.416 30.4134 129.416 30.5436 129.406 30.6686C129.343 31.1998 129.239 31.7311 129.093 32.2623C129.073 32.3248 129.052 32.3873 129.031 32.4498C129.01 32.5123 128.989 32.58 128.968 32.653C128.927 32.7884 128.875 32.9082 128.812 33.0123C128.656 33.2102 128.547 33.3717 128.484 33.4967C128.39 33.6634 128.323 33.7727 128.281 33.8248C128.156 33.9498 128.036 34.0644 127.922 34.1686C127.817 34.2727 127.718 34.3665 127.625 34.4498C127.531 34.5019 127.437 34.5592 127.343 34.6217C127.25 34.6738 127.156 34.7311 127.062 34.7936C126.885 34.9082 126.677 34.9915 126.437 35.0436L126.156 35.2155C126.062 35.278 125.958 35.3144 125.843 35.3248C125.656 35.4602 125.448 35.5696 125.218 35.653C125.114 35.6946 125.005 35.7363 124.89 35.778C124.786 35.8196 124.677 35.8665 124.562 35.9186C124.406 35.9811 124.271 36.054 124.156 36.1373C124.041 36.2207 123.896 36.304 123.718 36.3873C123.625 36.4186 123.474 36.455 123.265 36.4967C123.067 36.528 122.927 36.5644 122.843 36.6061C122.948 36.8144 122.989 37.0748 122.968 37.3873C122.958 37.679 123.01 37.9394 123.125 38.1686C123.396 38.2311 123.692 38.278 124.015 38.3092C124.338 38.3405 124.646 38.3352 124.937 38.2936C124.989 38.2832 125.041 38.2675 125.093 38.2467C125.156 38.2259 125.218 38.205 125.281 38.1842C125.343 38.1634 125.406 38.1425 125.468 38.1217C125.531 38.1009 125.593 38.0852 125.656 38.0748C125.885 38.0332 126.109 37.9811 126.328 37.9186C126.547 37.8561 126.739 37.7727 126.906 37.6686C127.51 37.4602 128.093 37.179 128.656 36.8248C129.218 36.4707 129.708 36.0852 130.125 35.6686C130.375 35.5019 130.651 35.2727 130.953 34.9811C131.255 34.6894 131.489 34.4186 131.656 34.1686C131.968 33.8352 132.244 33.5748 132.484 33.3873C132.724 33.1998 132.948 33.1165 133.156 33.1373C133.323 33.1373 133.484 33.2363 133.64 33.4342C133.797 33.6321 133.781 33.8457 133.593 34.0748C133.396 34.1998 133.177 34.3873 132.937 34.6373C132.708 34.8873 132.468 35.0644 132.218 35.1686C132.041 35.2832 131.807 35.5123 131.515 35.8561C131.234 36.179 131 36.429 130.812 36.6061C130.771 36.6477 130.724 36.6946 130.672 36.7467C130.619 36.7988 130.557 36.8509 130.484 36.903C130.349 37.0071 130.239 37.1165 130.156 37.2311C129.833 37.5019 129.521 37.7311 129.218 37.9186C129.104 37.8769 129.01 37.8977 128.937 37.9811C128.843 38.0957 128.76 38.179 128.687 38.2311C128.656 38.2519 128.625 38.2727 128.593 38.2936C128.562 38.3144 128.526 38.3352 128.484 38.3561C128.442 38.3769 128.406 38.3977 128.375 38.4186C128.343 38.4394 128.312 38.4602 128.281 38.4811C128.114 38.6269 127.932 38.7727 127.734 38.9186C127.536 39.0644 127.333 39.1894 127.125 39.2936C126.916 39.4186 126.708 39.5332 126.5 39.6373C126.291 39.7519 126.083 39.8509 125.875 39.9342C125.666 40.0175 125.458 40.1165 125.25 40.2311C125.052 40.3457 124.854 40.4707 124.656 40.6061L124.312 40.653C124.26 40.6634 124.208 40.6686 124.156 40.6686C124.104 40.679 124.052 40.6894 124 40.6998C123.885 40.7415 123.776 40.7623 123.672 40.7623C123.567 40.7623 123.437 40.7415 123.281 40.6998C122.593 40.5123 122.031 40.179 121.593 39.6998C121.531 39.6373 121.463 39.58 121.39 39.528C121.328 39.4655 121.26 39.4082 121.187 39.3561C121.021 39.2311 120.906 39.1165 120.843 39.0123C120.75 38.8561 120.656 38.6113 120.562 38.278C120.458 37.9446 120.369 37.6061 120.297 37.2623C120.224 36.9082 120.187 36.6373 120.187 36.4498C120.25 36.3248 120.317 36.1113 120.39 35.8092C120.463 35.4967 120.526 35.1894 120.578 34.8873C120.63 34.5748 120.656 34.3561 120.656 34.2311C120.698 34.1894 120.781 34.054 120.906 33.8248C121.021 33.5852 121.13 33.3457 121.234 33.1061C121.349 32.8561 121.406 32.6998 121.406 32.6373ZM126.437 30.6373C126.291 30.8248 126.146 31.0019 126 31.1686C125.854 31.3352 125.687 31.4915 125.5 31.6373C125.375 31.8665 125.229 32.0748 125.062 32.2623C124.896 32.4498 124.729 32.6269 124.562 32.7936C124.479 32.9602 124.385 33.0905 124.281 33.1842C124.177 33.278 124.062 33.3769 123.937 33.4811C123.802 33.7102 123.635 33.929 123.437 34.1373C123.239 34.3457 123.198 34.5852 123.312 34.8561C123.541 34.8977 123.771 34.8665 124 34.7623C124.229 34.6582 124.427 34.5644 124.593 34.4811C124.677 34.429 124.76 34.3821 124.843 34.3405C124.937 34.2988 125.026 34.2571 125.109 34.2155C125.192 34.1738 125.276 34.1321 125.359 34.0905C125.442 34.0488 125.521 34.0019 125.593 33.9498L126.406 33.1373C126.531 33.0227 126.656 32.8873 126.781 32.7311C126.833 32.6582 126.885 32.5852 126.937 32.5123C127 32.429 127.062 32.3457 127.125 32.2623C127.177 32.0332 127.26 31.8196 127.375 31.6217C127.5 31.4134 127.552 31.1998 127.531 30.9811C127.521 30.8873 127.484 30.778 127.422 30.653C127.359 30.528 127.323 30.429 127.312 30.3561C127.093 30.3561 126.932 30.3925 126.828 30.4655C126.776 30.5071 126.713 30.5436 126.64 30.5748C126.578 30.5957 126.51 30.6165 126.437 30.6373Z" fill="url(#paint0_linear_49_5)"/>
<defs>
<linearGradient id="paint0_linear_49_5" x1="61.3957" y1="47.3134" x2="126.412" y2="54.0997" gradientUnits="userSpaceOnUse">
<stop stop-color="#5441BF"/>
<stop offset="1" stop-color="#ED9899"/>
</linearGradient>
</defs>
</svg>
